<svg id="Group_20176" data-name="Group 20176" xmlns="http://www.w3.org/2000/svg" width="130" height="80">
    <defs>
        <style>
            .cls-4{isolation:isolate}.cls-2{fill:#fff}.cls-3{fill:#bac6d8}
        </style>
    </defs>
    <g id="Rectangle_6626" data-name="Rectangle 6626" style="isolation:isolate;opacity:.5">
        <rect id="Rectangle_6630" data-name="Rectangle 6630" class="cls-2" width="130" height="80" rx="8"/>
    </g>
    <g id="Group_20175" data-name="Group 20175" transform="translate(35.064 15.329)">
        <g id="Polygon_103" data-name="Polygon 103" transform="translate(0 10.855)">
            <g id="Group_20177" data-name="Group 20177" transform="translate(.63 .718)">
                <path id="Path_17273" data-name="Path 17273" class="cls-2" d="M1100.147 524.747h-29.134l14.567-24.973z" transform="translate(-1071.013 -499.774)"/>
            </g>
            <g id="Group_20178" data-name="Group 20178">
                <path id="Path_17274" data-name="Path 17274" class="cls-3" d="m1085.339 500.218-13.939 23.893h27.874l-13.937-23.893m0-1.436 15.2 26.052h-30.394z" transform="translate(-1070.142 -498.782)"/>
            </g>
        </g>
        <g id="Polygon_104" data-name="Polygon 104" transform="translate(18.092)">
            <g id="Group_20179" data-name="Group 20179" transform="translate(.633 .714)">
                <path id="Path_17275" data-name="Path 17275" class="cls-2" d="M1138.171 520.6h-42.156l21.078-35.832z" transform="translate(-1096.016 -484.768)"/>
            </g>
            <g id="Group_20180" data-name="Group 20180">
                <path id="Path_17276" data-name="Path 17276" class="cls-3" d="m1116.852 485.209-20.445 34.757h40.89l-20.445-34.757m0-1.427 21.71 36.907h-43.421z" transform="translate(-1095.142 -483.782)"/>
            </g>
        </g>
    </g>
    <g id="Image_Placeholder" data-name="Image Placeholder" class="cls-4" transform="translate(32.473 54.737)">
        <g id="Group_20181" data-name="Group 20181" class="cls-4">
            <path id="Path_17277" data-name="Path 17277" class="cls-3" d="M1066.561 544.607v-5.7h.721v5.7z" transform="translate(-1066.561 -538.424)"/>
            <path id="Path_17278" data-name="Path 17278" class="cls-3" d="M1069.62 545.131v-4.22h.59l.061.608h.026a2.94 2.94 0 0 1 .6-.508 1.308 1.308 0 0 1 .708-.2 1.206 1.206 0 0 1 .76.214 1.228 1.228 0 0 1 .4.594 3.563 3.563 0 0 1 .664-.586 1.287 1.287 0 0 1 .725-.221 1.14 1.14 0 0 1 .969.417 2.02 2.02 0 0 1 .317 1.233v2.675h-.712v-2.579a1.51 1.51 0 0 0-.191-.864.679.679 0 0 0-.59-.265 1.564 1.564 0 0 0-1.059.652v3.056h-.712v-2.579a1.51 1.51 0 0 0-.191-.864.689.689 0 0 0-.6-.265 1.565 1.565 0 0 0-1.06.652v3.056z" transform="translate(-1067.406 -538.948)"/>
            <path id="Path_17279" data-name="Path 17279" class="cls-3" d="M1080.441 545.235a1.281 1.281 0 0 1-.882-.313 1.124 1.124 0 0 1-.351-.885 1.172 1.172 0 0 1 .617-1.065 5.107 5.107 0 0 1 1.971-.517 1.91 1.91 0 0 0-.04-.391.974.974 0 0 0-.134-.339.7.7 0 0 0-.265-.239.9.9 0 0 0-.43-.091 1.719 1.719 0 0 0-.686.139 3.305 3.305 0 0 0-.573.313l-.278-.494a4.54 4.54 0 0 1 .721-.37 2.4 2.4 0 0 1 .938-.178 1.3 1.3 0 0 1 1.12.473 2.1 2.1 0 0 1 .347 1.263v2.588h-.59l-.061-.5h-.026a3.592 3.592 0 0 1-.652.431 1.62 1.62 0 0 1-.746.175zm.208-.573a1.21 1.21 0 0 0 .573-.143 2.9 2.9 0 0 0 .573-.422v-1.172a7.345 7.345 0 0 0-.89.165 2.374 2.374 0 0 0-.582.226.875.875 0 0 0-.321.3.713.713 0 0 0-.1.369.6.6 0 0 0 .217.521.878.878 0 0 0 .531.156z" transform="translate(-1070.056 -538.948)"/>
            <path id="Path_17280" data-name="Path 17280" class="cls-3" d="M1086.917 547.077a3.138 3.138 0 0 1-.712-.075 1.748 1.748 0 0 1-.552-.221 1.1 1.1 0 0 1-.356-.357.923.923 0 0 1-.126-.486.9.9 0 0 1 .165-.512 1.749 1.749 0 0 1 .452-.443v-.035a.828.828 0 0 1-.265-.265.841.841 0 0 1 .039-.89 1.31 1.31 0 0 1 .313-.313v-.035a1.726 1.726 0 0 1-.378-.464 1.318 1.318 0 0 1-.169-.674 1.486 1.486 0 0 1 .127-.625 1.407 1.407 0 0 1 .342-.474 1.522 1.522 0 0 1 .508-.3 1.8 1.8 0 0 1 .612-.1 1.65 1.65 0 0 1 .326.03 1.864 1.864 0 0 1 .274.074h1.468v.547h-.868a1.229 1.229 0 0 1 .247.374 1.208 1.208 0 0 1 .1.494 1.494 1.494 0 0 1-.121.612 1.351 1.351 0 0 1-.33.461 1.5 1.5 0 0 1-.49.29 1.726 1.726 0 0 1-.6.1 1.4 1.4 0 0 1-.321-.04 1.6 1.6 0 0 1-.313-.109 1.026 1.026 0 0 0-.191.213.516.516 0 0 0-.078.291.411.411 0 0 0 .156.33.963.963 0 0 0 .591.131h.816a2.056 2.056 0 0 1 1.107.239.846.846 0 0 1 .369.768 1.134 1.134 0 0 1-.148.561 1.433 1.433 0 0 1-.426.464 2.25 2.25 0 0 1-.673.318 3.157 3.157 0 0 1-.895.121zm.1-.5a1.951 1.951 0 0 0 .551-.073 1.549 1.549 0 0 0 .421-.192.884.884 0 0 0 .269-.274.607.607 0 0 0 .1-.321.419.419 0 0 0-.217-.409 1.41 1.41 0 0 0-.634-.113h-.73q-.121 0-.265-.013a1.313 1.313 0 0 1-.282-.057 1.151 1.151 0 0 0-.33.348.729.729 0 0 0-.1.365.609.609 0 0 0 .325.538 1.718 1.718 0 0 0 .897.205zm-.1-3.265a.866.866 0 0 0 .343-.069.891.891 0 0 0 .482-.517 1.2 1.2 0 0 0 .069-.421.971.971 0 0 0-.261-.725.912.912 0 0 0-1.268 0 .971.971 0 0 0-.26.725 1.2 1.2 0 0 0 .069.421.891.891 0 0 0 .482.517.866.866 0 0 0 .344.073z" transform="translate(-1071.704 -538.948)"/>
            <path id="Path_17281" data-name="Path 17281" class="cls-3" d="M1093.087 545.235a2.067 2.067 0 0 1-.795-.152 1.883 1.883 0 0 1-.643-.434 2.008 2.008 0 0 1-.43-.69 2.587 2.587 0 0 1-.157-.929 2.554 2.554 0 0 1 .161-.934 2.18 2.18 0 0 1 .425-.7 1.836 1.836 0 0 1 .6-.438 1.678 1.678 0 0 1 .7-.153 1.77 1.77 0 0 1 .716.139 1.4 1.4 0 0 1 .53.4 1.833 1.833 0 0 1 .326.625 2.757 2.757 0 0 1 .113.816v.222a1.1 1.1 0 0 1-.022.186h-2.849a1.647 1.647 0 0 0 .421 1.073 1.3 1.3 0 0 0 .985.4 1.661 1.661 0 0 0 .561-.091 2.516 2.516 0 0 0 .491-.238l.252.468a3.623 3.623 0 0 1-.617.3 2.14 2.14 0 0 1-.768.13zm-1.329-2.553h2.258a1.514 1.514 0 0 0-.274-.977.938.938 0 0 0-.769-.334 1.087 1.087 0 0 0-.43.087 1.124 1.124 0 0 0-.369.257 1.4 1.4 0 0 0-.273.412 1.856 1.856 0 0 0-.143.555z" transform="translate(-1073.332 -538.948)"/>
            <path id="Path_17282" data-name="Path 17282" class="cls-3" d="M1099.944 544.607v-5.7h1.624a4.076 4.076 0 0 1 .873.087 1.858 1.858 0 0 1 .673.281 1.337 1.337 0 0 1 .434.517 1.8 1.8 0 0 1 .156.792 1.857 1.857 0 0 1-.152.782 1.465 1.465 0 0 1-.43.547 1.92 1.92 0 0 1-.664.326 3.187 3.187 0 0 1-.855.108h-.938v2.258zm.721-2.848h.851a1.786 1.786 0 0 0 1.107-.283 1.06 1.06 0 0 0 .36-.889.935.935 0 0 0-.378-.857 2.137 2.137 0 0 0-1.125-.239h-.816z" transform="translate(-1075.786 -538.424)"/>
            <path id="Path_17283" data-name="Path 17283" class="cls-3" d="M1107.4 544.525a.665.665 0 0 1-.582-.243 1.22 1.22 0 0 1-.174-.712v-5.332h.712v5.385a.375.375 0 0 0 .061.243.183.183 0 0 0 .139.069h.065a.335.335 0 0 0 .091-.017l.1.538a.609.609 0 0 1-.165.052 1.4 1.4 0 0 1-.247.017z" transform="translate(-1077.636 -538.238)"/>
            <path id="Path_17284" data-name="Path 17284" class="cls-3" d="M1110.573 545.235a1.281 1.281 0 0 1-.882-.313 1.125 1.125 0 0 1-.351-.885 1.173 1.173 0 0 1 .616-1.065 5.116 5.116 0 0 1 1.972-.517 1.945 1.945 0 0 0-.04-.391.974.974 0 0 0-.134-.339.709.709 0 0 0-.265-.239.9.9 0 0 0-.43-.091 1.718 1.718 0 0 0-.686.139 3.314 3.314 0 0 0-.573.313l-.278-.494a4.54 4.54 0 0 1 .721-.37 2.4 2.4 0 0 1 .938-.178 1.3 1.3 0 0 1 1.12.473 2.1 2.1 0 0 1 .347 1.263v2.588h-.59l-.061-.5h-.026a3.585 3.585 0 0 1-.652.431 1.619 1.619 0 0 1-.746.175zm.208-.573a1.211 1.211 0 0 0 .573-.143 2.9 2.9 0 0 0 .573-.422v-1.172a7.354 7.354 0 0 0-.89.165 2.377 2.377 0 0 0-.582.226.876.876 0 0 0-.321.3.714.714 0 0 0-.1.369.6.6 0 0 0 .217.521.879.879 0 0 0 .53.156z" transform="translate(-1078.382 -538.948)"/>
            <path id="Path_17285" data-name="Path 17285" class="cls-3" d="M1117.3 545.235a2.073 2.073 0 0 1-.781-.147 1.753 1.753 0 0 1-.63-.431 2.013 2.013 0 0 1-.418-.695 2.7 2.7 0 0 1-.152-.933 2.542 2.542 0 0 1 .165-.942 2.126 2.126 0 0 1 .443-.7 1.852 1.852 0 0 1 .648-.434 2.069 2.069 0 0 1 .776-.148 1.577 1.577 0 0 1 .712.148 2.426 2.426 0 0 1 .521.347l-.365.47a1.723 1.723 0 0 0-.386-.269.975.975 0 0 0-.456-.1 1.185 1.185 0 0 0-.946.452 1.632 1.632 0 0 0-.274.517 2.277 2.277 0 0 0 0 1.324 1.6 1.6 0 0 0 .264.508 1.178 1.178 0 0 0 .413.33 1.2 1.2 0 0 0 .53.117 1.182 1.182 0 0 0 .543-.125 2.237 2.237 0 0 0 .447-.3l.313.478a2.284 2.284 0 0 1-.634.4 1.911 1.911 0 0 1-.733.133z" transform="translate(-1080.033 -538.948)"/>
            <path id="Path_17286" data-name="Path 17286" class="cls-3" d="M1122.559 545.235a2.067 2.067 0 0 1-.8-.152 1.889 1.889 0 0 1-.642-.434 2.012 2.012 0 0 1-.43-.69 2.8 2.8 0 0 1 0-1.863 2.172 2.172 0 0 1 .425-.7 1.825 1.825 0 0 1 .6-.438 1.672 1.672 0 0 1 .7-.153 1.77 1.77 0 0 1 .717.139 1.4 1.4 0 0 1 .53.4 1.828 1.828 0 0 1 .325.625 2.734 2.734 0 0 1 .113.816v.222a1 1 0 0 1-.022.186h-2.848a1.645 1.645 0 0 0 .421 1.073 1.3 1.3 0 0 0 .985.4 1.667 1.667 0 0 0 .561-.091 2.491 2.491 0 0 0 .49-.238l.252.468a3.594 3.594 0 0 1-.617.3 2.137 2.137 0 0 1-.76.13zm-1.329-2.553h2.257a1.513 1.513 0 0 0-.273-.977.936.936 0 0 0-.768-.334 1.087 1.087 0 0 0-.43.087 1.133 1.133 0 0 0-.37.257 1.418 1.418 0 0 0-.274.412 1.859 1.859 0 0 0-.142.555z" transform="translate(-1081.475 -538.948)"/>
            <path id="Path_17287" data-name="Path 17287" class="cls-3" d="M1126.919 544.421v-6.183h.712v1.685l-.026.869a3.931 3.931 0 0 1 .634-.491 1.44 1.44 0 0 1 .774-.2 1.134 1.134 0 0 1 .976.417 2.063 2.063 0 0 1 .308 1.233v2.675h-.711v-2.579a1.5 1.5 0 0 0-.192-.864.7.7 0 0 0-.608-.265 1.039 1.039 0 0 0-.582.165 3.8 3.8 0 0 0-.573.487v3.056z" transform="translate(-1083.239 -538.238)"/>
            <path id="Path_17288" data-name="Path 17288" class="cls-3" d="M1134.969 545.235a1.914 1.914 0 0 1-.743-.147 1.831 1.831 0 0 1-.621-.431 2.09 2.09 0 0 1-.43-.695 2.552 2.552 0 0 1-.161-.933 2.582 2.582 0 0 1 .161-.942 2.141 2.141 0 0 1 .43-.7 1.812 1.812 0 0 1 .621-.434 1.942 1.942 0 0 1 1.485 0 1.821 1.821 0 0 1 .622.434 2.15 2.15 0 0 1 .429.7 2.589 2.589 0 0 1 .161.942 2.56 2.56 0 0 1-.161.933 2.1 2.1 0 0 1-.429.695 1.839 1.839 0 0 1-.622.431 1.911 1.911 0 0 1-.742.147zm0-.59a1.051 1.051 0 0 0 .5-.117 1.145 1.145 0 0 0 .387-.33 1.576 1.576 0 0 0 .247-.508 2.34 2.34 0 0 0 .087-.66 2.393 2.393 0 0 0-.087-.664 1.64 1.64 0 0 0-.247-.517 1.137 1.137 0 0 0-.387-.334 1.1 1.1 0 0 0-.99 0 1.135 1.135 0 0 0-.386.334 1.625 1.625 0 0 0-.248.517 2.38 2.38 0 0 0-.087.664 2.328 2.328 0 0 0 .087.66 1.562 1.562 0 0 0 .248.508 1.143 1.143 0 0 0 .386.33 1.051 1.051 0 0 0 .49.116z" transform="translate(-1084.924 -538.948)"/>
            <path id="Path_17289" data-name="Path 17289" class="cls-3" d="M1140.707 544.525a.666.666 0 0 1-.582-.243 1.218 1.218 0 0 1-.174-.712v-5.332h.712v5.385a.376.376 0 0 0 .061.243.182.182 0 0 0 .139.069h.065a.334.334 0 0 0 .091-.017l.1.538a.615.615 0 0 1-.165.052 1.4 1.4 0 0 1-.247.017z" transform="translate(-1086.84 -538.238)"/>
            <path id="Path_17290" data-name="Path 17290" class="cls-3" d="M1144.337 544.525a1.564 1.564 0 0 1-1.272-.573 2.5 2.5 0 0 1-.473-1.633 2.653 2.653 0 0 1 .152-.924 2.2 2.2 0 0 1 .4-.7 1.792 1.792 0 0 1 .582-.443 1.6 1.6 0 0 1 .695-.156 1.44 1.44 0 0 1 .634.13 2.83 2.83 0 0 1 .547.357l-.035-.722v-1.624h.721v6.183h-.591l-.061-.494h-.025a2.707 2.707 0 0 1-.578.421 1.442 1.442 0 0 1-.696.178zm.156-.6a1.138 1.138 0 0 0 .556-.144 1.975 1.975 0 0 0 .521-.438v-2.206a1.8 1.8 0 0 0-.517-.343 1.36 1.36 0 0 0-.508-.1 1 1 0 0 0-.473.117 1.194 1.194 0 0 0-.386.33 1.638 1.638 0 0 0-.261.508 2.143 2.143 0 0 0-.1.66 2.02 2.02 0 0 0 .3 1.19 1 1 0 0 0 .868.428z" transform="translate(-1087.57 -538.238)"/>
            <path id="Path_17291" data-name="Path 17291" class="cls-3" d="M1151.262 545.235a2.062 2.062 0 0 1-.794-.152 1.879 1.879 0 0 1-.643-.434 2.019 2.019 0 0 1-.43-.69 2.6 2.6 0 0 1-.156-.929 2.555 2.555 0 0 1 .161-.934 2.18 2.18 0 0 1 .425-.7 1.835 1.835 0 0 1 .6-.438 1.681 1.681 0 0 1 .7-.153 1.776 1.776 0 0 1 .717.139 1.407 1.407 0 0 1 .529.4 1.833 1.833 0 0 1 .326.625 2.753 2.753 0 0 1 .114.816v.222a1.155 1.155 0 0 1-.022.186h-2.848a1.646 1.646 0 0 0 .421 1.073 1.3 1.3 0 0 0 .986.4 1.665 1.665 0 0 0 .561-.091 2.52 2.52 0 0 0 .49-.238l.252.468a3.608 3.608 0 0 1-.616.3 2.143 2.143 0 0 1-.773.13zm-1.329-2.553h2.258a1.513 1.513 0 0 0-.273-.977.938.938 0 0 0-.769-.334 1.087 1.087 0 0 0-.43.087 1.131 1.131 0 0 0-.369.257 1.39 1.39 0 0 0-.274.412 1.867 1.867 0 0 0-.142.555z" transform="translate(-1089.407 -538.948)"/>
            <path id="Path_17292" data-name="Path 17292" class="cls-3" d="M1155.623 545.131v-4.22h.59l.061.764h.027a1.965 1.965 0 0 1 .525-.634 1.086 1.086 0 0 1 .673-.234 1.133 1.133 0 0 1 .452.086l-.14.626a1.7 1.7 0 0 0-.19-.052 1.143 1.143 0 0 0-.217-.017.946.946 0 0 0-.56.217 1.735 1.735 0 0 0-.509.756v2.709z" transform="translate(-1091.171 -538.948)"/>
        </g>
    </g>
</svg>
